<svg xmlns="http://www.w3.org/2000/svg" width="22.505" height="10.335" viewBox="0 0 22.505 10.335">
  <g id="Arrow" transform="translate(31.25 -14.188) rotate(90)">
    <path id="Vector" d="M5.167,22.5a1.312,1.312,0,0,1-.912-.366,1.231,1.231,0,0,1-.378-.884V4.26L2.212,5.885a1.325,1.325,0,0,1-1.832,0,1.228,1.228,0,0,1,0-1.775L4.25.36A1.3,1.3,0,0,1,4.913.023,1.329,1.329,0,0,1,5.657.1a1.283,1.283,0,0,1,.58.458,1.223,1.223,0,0,1,.22.692v20a1.231,1.231,0,0,1-.378.884A1.312,1.312,0,0,1,5.167,22.5Z" transform="translate(14.188 8.752)" fill="#2b2d38"/>
    <path id="Vector-2" data-name="Vector" d="M5.167,6.255a1.327,1.327,0,0,1-.5-.093,1.294,1.294,0,0,1-.421-.27L.379,2.143A1.236,1.236,0,0,1,0,1.255,1.221,1.221,0,0,1,.1.775,1.253,1.253,0,0,1,.379.368,1.3,1.3,0,0,1,.8.1,1.332,1.332,0,0,1,1.3,0a1.317,1.317,0,0,1,.916.368l3.871,3.75a1.249,1.249,0,0,1,.282.407,1.214,1.214,0,0,1,0,.961,1.248,1.248,0,0,1-.282.407,1.294,1.294,0,0,1-.421.27A1.327,1.327,0,0,1,5.167,6.255Z" transform="translate(18.059 8.745)" fill="#2b2d38"/>
  </g>
</svg>
