<svg xmlns="http://www.w3.org/2000/svg" width="18.586" height="16.266" viewBox="0 0 18.586 16.266">
  <g id="Menu" transform="translate(21.445 -3.891) rotate(180)">
    <path id="Vector" d="M18.586-1.207a1.207,1.207,0,0,0-1.207-1.207H1.207A1.207,1.207,0,0,0,0-1.207,1.207,1.207,0,0,0,1.207,0H17.379A1.207,1.207,0,0,0,18.586-1.207ZM14.672-8.145a1.207,1.207,0,0,0-1.207-1.207H1.207A1.207,1.207,0,0,0,0-8.145,1.207,1.207,0,0,0,1.207-6.937H13.465A1.207,1.207,0,0,0,14.672-8.145ZM8.18-15.059a1.207,1.207,0,0,0-1.207-1.207H1.207A1.207,1.207,0,0,0,0-15.059a1.207,1.207,0,0,0,1.207,1.207H6.973A1.207,1.207,0,0,0,8.18-15.059Z" transform="translate(2.859 -3.891)" fill="#2b2d38"/>
  </g>
</svg>
