<svg xmlns="http://www.w3.org/2000/svg" width="50.617" height="53.333" viewBox="0 0 50.617 53.333">
  <g id="Music_Note" data-name="Music Note" transform="translate(-7.111 -5.333)">
    <path id="Vector" d="M.63,33.37C-1.55,38.821,2.447,45.635,4.719,48.361c6.814,8.177,35.434,6.814,42.248-8.177s4.089-28.62-8.177-36.8-28.62,0-27.257,8.177S3.356,26.555.63,33.37Z" transform="translate(7.111 5.333)" fill="#efefef"/>
    <path id="Vector-2" data-name="Vector" d="M19.111,0A19.111,19.111,0,1,0,38.222,19.111,19.111,19.111,0,0,0,19.111,0Z" transform="translate(12.889 12.889)" fill="#db2a6b"/>
    <path id="Vector-3" data-name="Vector" d="M0,19.111A19.111,19.111,0,0,1,19.111,0a19.313,19.313,0,0,1,2.222.128,19.113,19.113,0,0,0,0,37.967,19.308,19.308,0,0,1-2.222.128A19.111,19.111,0,0,1,0,19.111Z" transform="translate(12.889 12.889)" fill="#cd89fd"/>
    <path id="Vector-4" data-name="Vector" d="M4.889,0A4.889,4.889,0,1,0,9.778,4.889,4.889,4.889,0,0,0,4.889,0Z" transform="translate(23.556 32.444)" fill="#f3f3f1"/>
    <g id="Group">
      <path id="Vector-5" data-name="Vector" d="M0,4.889A4.891,4.891,0,0,1,7.111.533a4.891,4.891,0,0,0,0,8.711A4.891,4.891,0,0,1,0,4.889Z" transform="translate(23.556 32.444)" fill="#d6dbe1"/>
      <path id="Vector-6" data-name="Vector" d="M19.111,2.667A16.444,16.444,0,1,0,35.556,19.111,16.445,16.445,0,0,0,19.111,2.667ZM0,19.111A19.111,19.111,0,1,1,19.111,38.222,19.111,19.111,0,0,1,0,19.111Z" transform="translate(12.889 12.889)" fill="#2b2d38"/>
      <path id="Vector-7" data-name="Vector" d="M4.889,2.667A2.222,2.222,0,1,0,7.111,4.889,2.222,2.222,0,0,0,4.889,2.667ZM0,4.889A4.889,4.889,0,1,1,4.889,9.778,4.889,4.889,0,0,1,0,4.889Z" transform="translate(23.556 32.444)" fill="#2b2d38"/>
      <path id="Vector-8" data-name="Vector" d="M.53.269A1.333,1.333,0,0,1,1.7.051l1.065.3A8.444,8.444,0,0,1,8.889,8.475v.858H6.222V8.475A5.778,5.778,0,0,0,2.667,3.142V15.556H0V1.333A1.334,1.334,0,0,1,.53.269Z" transform="translate(30.667 21.778)" fill="#2b2d38"/>
      <path id="Vector-9" data-name="Vector" d="M2.667,3.556a.889.889,0,1,0-.889-.889A.889.889,0,0,0,2.667,3.556Zm0,1.778A2.667,2.667,0,1,0,0,2.667,2.667,2.667,0,0,0,2.667,5.333Z" transform="translate(8.889 10.667)" fill="#a4afc1"/>
    </g>
  </g>
</svg>
