<svg xmlns="http://www.w3.org/2000/svg" width="53.333" height="57.792" viewBox="0 0 53.333 57.792">
  <g id="Music_Playlist" data-name="Music Playlist" transform="translate(-5.333 -3.556)">
    <path id="Vector" d="M7.768,50.049C2.853,45.134-1.964,41.707.817,30.585c2.224-8.9,11.122-6.951,9.732-15.293C7.314,3.55,9.158,0,23.061,0S43.914,1.39,42.524,8.341s5.561,4.171,9.732,13.9S48.085,47.268,34.183,54.22,14.719,57,7.768,50.049Z" transform="translate(5.333 3.556)" fill="#efefef"/>
    <path id="Vector-2" data-name="Vector" d="M4.889,0A4.889,4.889,0,0,0,0,4.889V19.111A4.889,4.889,0,0,0,4.889,24H19.111A4.889,4.889,0,0,0,24,19.111V4.889A4.889,4.889,0,0,0,19.111,0Z" transform="translate(14.667 25.333)" fill="#db2a6b"/>
    <path id="Vector-3" data-name="Vector" d="M0,4.889A4.889,4.889,0,0,1,4.889,0H9.333A4.889,4.889,0,0,0,4.444,4.889V19.111A4.889,4.889,0,0,0,9.333,24H4.889A4.889,4.889,0,0,1,0,19.111Z" transform="translate(14.667 25.333)" fill="#cd89fd"/>
    <path id="Vector-4" data-name="Vector" d="M2.073.224A1.333,1.333,0,0,0,0,1.333V8.444A1.333,1.333,0,0,0,2.073,9.554L7.406,6a1.333,1.333,0,0,0,0-2.219L2.073.224Z" transform="translate(23.556 32.444)" fill="#f3f3f1"/>
    <g id="Group">
      <path id="Vector-5" data-name="Vector" d="M.7.158A1.333,1.333,0,0,1,2.073.224l1.488.992c0,.039-.005.078-.005.118V8.444c0,.039,0,.079.005.118l-1.488.992A1.333,1.333,0,0,1,0,8.444V1.333A1.334,1.334,0,0,1,.7.158Z" transform="translate(23.556 32.444)" fill="#d6dbe1"/>
      <path id="Vector-6" data-name="Vector" d="M0,4.889A4.889,4.889,0,0,1,4.889,0H19.111A4.889,4.889,0,0,1,24,4.889V19.111A4.889,4.889,0,0,1,19.111,24H4.889A4.889,4.889,0,0,1,0,19.111ZM4.889,2.667A2.222,2.222,0,0,0,2.667,4.889V19.111a2.222,2.222,0,0,0,2.222,2.222H19.111a2.222,2.222,0,0,0,2.222-2.222V4.889a2.222,2.222,0,0,0-2.222-2.222Z" transform="translate(14.667 25.333)" fill="#2b2d38"/>
      <path id="Vector-7" data-name="Vector" d="M17.778,2.667H0V0H17.778a4.889,4.889,0,0,1,4.889,4.889V22.667H20V4.889A2.222,2.222,0,0,0,17.778,2.667Z" transform="translate(21.333 20)" fill="#2b2d38"/>
      <path id="Vector-8" data-name="Vector" d="M20.889,2.667H3.111V0H20.889a4.889,4.889,0,0,1,4.889,4.889V22.667H23.111V4.889A2.222,2.222,0,0,0,20.889,2.667ZM.7,17.935A1.333,1.333,0,0,1,2.073,18l5.333,3.556a1.333,1.333,0,0,1,0,2.219L2.073,27.332A1.333,1.333,0,0,1,0,26.222V19.111a1.334,1.334,0,0,1,.7-1.176ZM2.667,21.6v2.128l1.6-1.064L2.667,21.6Z" transform="translate(23.556 14.667)" fill="#2b2d38"/>
      <path id="Vector-9" data-name="Vector" d="M2.667,3.556a.889.889,0,1,0-.889-.889A.889.889,0,0,0,2.667,3.556Zm0,1.778A2.667,2.667,0,1,0,0,2.667,2.667,2.667,0,0,0,2.667,5.333Z" transform="translate(53.333 10.667)" fill="#a4afc1"/>
    </g>
  </g>
</svg>
