<svg xmlns="http://www.w3.org/2000/svg" width="53.333" height="52.823" viewBox="0 0 53.333 52.823">
  <g id="Musician" transform="translate(-5.333 -5.333)">
    <path id="Vector" d="M16.666,3.029C4.589-3.558.655,2.114.2,5.774-1.861,22.243,12.549,51.063,24.9,52.435s23.33,0,27.448-19.214S46.859,5.774,38.624,7.146s-6.862,4.117-21.958-4.117Z" transform="translate(5.333 5.333)" fill="#efefef"/>
    <path id="Vector-2" data-name="Vector" d="M6.667,0a6.667,6.667,0,1,0,6.667,6.667A6.667,6.667,0,0,0,6.667,0Z" transform="translate(25.333 25.333)" fill="#f3f3f1"/>
    <path id="Vector-3" data-name="Vector" d="M0,6.667A6.671,6.671,0,0,1,8.889.379a6.669,6.669,0,0,0,0,12.575A6.671,6.671,0,0,1,0,6.667Z" transform="translate(25.333 25.333)" fill="#d6dbe1"/>
    <path id="Vector-4" data-name="Vector" d="M19.111,2.667A16.445,16.445,0,0,0,7.791,31.039a7.846,7.846,0,0,1,3.181-2.67,18.614,18.614,0,0,1,8.139-1.7,18.614,18.614,0,0,1,8.139,1.7,7.846,7.846,0,0,1,3.181,2.67,16.453,16.453,0,0,0,2.926-20.15l2.308-1.335A19.113,19.113,0,1,1,19.111,0Z" transform="translate(12.889 14.667)" fill="#db2a6b"/>
    <g id="Group">
      <path id="Vector-5" data-name="Vector" d="M.128,16.889A19.313,19.313,0,0,0,0,19.111a19.111,19.111,0,0,0,38.222,0,19.3,19.3,0,0,0-.128-2.222A19.04,19.04,0,0,1,33.23,27.547a16.516,16.516,0,0,1-2.8,3.493,5.5,5.5,0,0,0-.469-.638,19.121,19.121,0,0,1-21.7,0,5.5,5.5,0,0,0-.469.638,16.516,16.516,0,0,1-2.8-3.493A19.04,19.04,0,0,1,.128,16.889Zm35.279,0a16.591,16.591,0,0,0-.521-6.883l-1.529.885a16.328,16.328,0,0,1,2.05,6Zm-32.591,0a16.6,16.6,0,0,1-.149-2.222A16.368,16.368,0,0,1,4.992,6.231,19.061,19.061,0,0,1,19.111,0V2.667a16.448,16.448,0,0,0-16.3,14.222Z" transform="translate(12.889 14.667)" fill="#cd89fd"/>
      <path id="Vector-6" data-name="Vector" d="M19.111,2.667A16.436,16.436,0,1,0,33.356,10.89l2.308-1.335A19.113,19.113,0,1,1,19.111,0Z" transform="translate(12.889 14.667)" fill="#2b2d38"/>
    </g>
    <path id="Vector-7" data-name="Vector" d="M5.333,2.667A2.667,2.667,0,1,1,2.667,0,2.667,2.667,0,0,1,5.333,2.667Z" transform="translate(37.333 17.778)" fill="#db2a6b"/>
    <g id="Group-2" data-name="Group">
      <path id="Vector-8" data-name="Vector" d="M4,.357a2.667,2.667,0,0,0,0,4.62A2.667,2.667,0,1,1,2.667,0,2.653,2.653,0,0,1,4,.357Z" transform="translate(37.333 17.778)" fill="#cd89fd"/>
      <path id="Vector-9" data-name="Vector" d="M20,2.667A1.333,1.333,0,1,0,21.333,4,1.333,1.333,0,0,0,20,2.667ZM16,4a4,4,0,1,1,4,4A4,4,0,0,1,16,4Zm-4,7.556a4,4,0,1,0,4,4A4,4,0,0,0,12,11.556Zm-6.667,4A6.667,6.667,0,1,1,12,22.222,6.667,6.667,0,0,1,5.333,15.556ZM5.054,28.977c-1.789.894-2.387,1.883-2.387,2.579H0c0-2.25,1.789-3.928,3.861-4.964A18.614,18.614,0,0,1,12,24.889a18.614,18.614,0,0,1,8.139,1.7C22.211,27.628,24,29.306,24,31.556H21.333c0-.7-.6-1.684-2.387-2.579A15.983,15.983,0,0,0,12,27.556a15.983,15.983,0,0,0-6.946,1.421Z" transform="translate(20 16.444)" fill="#2b2d38"/>
      <path id="Vector-10" data-name="Vector" d="M0,1.333A1.333,1.333,0,0,1,1.333,0H5.778V2.667H2.667V7.556H0Z" transform="translate(41.333 12.889)" fill="#2b2d38"/>
      <path id="Vector-11" data-name="Vector" d="M7.11,3.555V7.111H5.333V3.555ZM3.556,1.778H0V0H3.556Z" transform="translate(10.667 50.666)" fill="#90a4ad"/>
    </g>
  </g>
</svg>
